Coordinates
version=1
nRows=8
nColumns=63
inDegrees=yes

Units are S.I. units (second, meters, Newtons, ...)
If the header above contains a line with 'inDegrees', this indicates whether rotational values are in degrees (yes) or radians (no).

endheader
time	pelvis_tilt	pelvis_list	pelvis_rotation	pelvis_tx	pelvis_ty	pelvis_tz	hip_flexion_r	hip_adduction_r	hip_rotation_r	knee_angle_r	knee_angle_r_beta	ankle_angle_r	subtalar_angle_r	mtp_angle_r	hip_flexion_l	hip_adduction_l	hip_rotation_l	knee_angle_l	knee_angle_l_beta	ankle_angle_l	subtalar_angle_l	mtp_angle_l	L5_S1_Flex_Ext	L5_S1_Lat_Bending	L5_S1_axial_rotation	L4_L5_Flex_Ext	L4_L5_Lat_Bending	L4_L5_axial_rotation	L3_L4_Flex_Ext	L3_L4_Lat_Bending	L3_L4_axial_rotation	L2_L3_Flex_Ext	L2_L3_Lat_Bending	L2_L3_axial_rotation	L1_L2_Flex_Ext	L1_L2_Lat_Bending	L1_L2_axial_rotation	L1_T12_Flex_Ext	L1_T12_Lat_Bending	L1_T12_axial_rotation	Abs_r3	Abs_r2	Abs_r1	Abs_t1	Abs_t2	neck_flexion	neck_bending	neck_rotation	arm_flex_r	arm_add_r	arm_rot_r	elbow_flex_r	pro_sup_r	wrist_flex_r	wrist_dev_r	arm_flex_l	arm_add_l	arm_rot_l	elbow_flex_l	pro_sup_l	wrist_flex_l	wrist_dev_l
      0.00000000	     -6.78361353	     -2.92554702	     92.17832212	      0.23856293	      0.73527912	      0.69651914	      3.41995546	     -4.01564415	    -10.62318817	      6.29834157	      0.10992680	     32.06508468	      6.82962550	      0.00000000	      3.79964373	      4.27147107	      2.60866844	      2.43384240	      0.04247856	     29.50212265	      1.73075834	      0.00000000	      0.47405428	     -0.25256893	     -0.67347297	      0.88036620	     -0.33591668	     -0.71556503	      0.77882377	     -0.61409609	     -0.71556503	      0.54179663	     -0.61409609	     -0.58928885	      0.44020680	     -0.51503856	     -0.54719679	      0.27087461	     -0.39122927	     -0.50510473	      3.38612230	     -2.85711024	     -3.74565463	      0.00000000	      0.00000000	     28.09801478	      7.33622840	      5.35218084	      9.47734461	     -7.34929479	     54.14167791	     47.20861591	     30.12258003	     -3.15470337	     31.39290285	      1.77347772	    -10.13665800	     38.49593061	     54.47991565	     77.22643774	      8.13104797	     13.03638868
      0.01666667	     -6.11681021	     -2.74307283	     92.16380953	      0.23758829	      0.73584388	      0.69688793	      3.44269057	     -3.34605272	    -10.23758682	      6.43828069	      0.11236920	     31.08095694	      4.64566292	      0.00000000	      3.49628401	      3.65341831	      2.88254461	      2.45395320	      0.04282956	     28.91487909	      1.30057720	      0.00000000	      0.44585388	     -0.12729875	     -0.84036940	      0.82799525	     -0.16930734	     -0.89289249	      0.73249335	     -0.30951419	     -0.89289249	      0.50956640	     -0.30951419	     -0.73532323	      0.41401992	     -0.25958761	     -0.68280014	      0.25476091	     -0.19718577	     -0.63027705	      3.18468971	     -1.44002894	     -4.67388251	      0.00000000	      0.00000000	     28.05780437	      7.82130750	      8.45477362	     10.35389242	     -7.95172157	     56.06736363	     47.31923294	     29.49774207	     -3.61153981	     31.28275231	      2.24672244	     -9.55686324	     38.67713330	     53.16591761	     78.96304772	      9.02620441	     11.06805265
      0.03333333	     -5.61857985	     -2.59222985	     92.05657326	      0.23704131	      0.73634263	      0.69704481	      3.49235451	     -2.68576799	     -7.42986189	      6.48596485	      0.11320144	     29.78632157	     -0.14852983	      0.00000000	      3.18361813	      3.18654540	      2.90387820	      2.28438196	      0.03986999	     28.43676695	      0.99914155	      0.00000000	      0.42341687	     -0.04257417	     -0.91532072	      0.78632746	     -0.05662364	     -0.97252827	      0.69563157	     -0.10351483	     -0.97252827	      0.48392314	     -0.10351483	     -0.80090563	      0.39318490	     -0.08681724	     -0.74369809	      0.24194040	     -0.06594738	     -0.68649054	      3.02442434	     -0.48160748	     -5.09073927	      0.00000000	      0.00000000	     28.02864771	      7.60973797	      9.59186099	     10.78341155	     -8.35542241	     57.13924408	     47.51453707	     27.49771637	     -4.76771605	     31.27381393	      2.52932127	     -9.03681273	     38.53866877	     52.32358387	     81.07789433	      9.61347072	     10.16989938
      0.05000000	     -5.22164746	     -2.49155771	     92.16729560	      0.23638384	      0.73681485	      0.69711518	      3.51139075	     -2.25892146	     -7.09365239	      6.46909412	      0.11290699	     29.18697091	     -1.31984116	      0.00000000	      3.00054079	      2.81619620	      3.03550926	      2.16027353	      0.03770389	     28.21954176	      0.90575198	      0.00000000	      0.40803888	      0.02155762	     -0.99149317	      0.75776901	      0.02867164	     -1.05346149	      0.67036708	      0.05241520	     -1.05346149	      0.46634764	      0.05241520	     -0.86755652	      0.37890491	      0.04396030	     -0.80558820	      0.23315342	      0.03339276	     -0.74361988	      2.91458095	      0.24386414	     -5.51438755	      0.00000000	      0.00000000	     27.99092876	      7.37397215	     10.43545563	     11.04533592	     -8.60585589	     57.72678405	     47.44345501	     26.87774364	     -4.73428154	     31.37955216	      2.72986400	     -8.71617296	     38.79894734	     51.73660301	     80.36576246	      9.53395291	      9.68134478
      0.06666667	     -5.03167636	     -2.39184272	     91.97989704	      0.23649703	      0.73714315	      0.69711670	      3.54724502	     -1.91706439	     -4.81447982	      6.38064308	      0.11136323	     28.44307212	     -4.27441206	      0.00000000	      2.75830096	      2.62474490	      3.26719853	      1.89795521	      0.03312557	     28.02014285	      0.29970327	      0.00000000	      0.39044330	      0.05135422	     -0.97973203	      0.72509225	      0.06830112	     -1.04096529	      0.64145929	      0.12486266	     -1.04096529	      0.44623764	      0.12486266	     -0.85726553	      0.36256565	      0.10472153	     -0.79603228	      0.22309930	      0.07954769	     -0.73479903	      2.78889743	      0.58092924	     -5.44897566	      0.00000000	      0.00000000	     27.95858865	      7.10743360	     10.74226199	     11.18143662	     -8.77692964	     58.22614528	     47.60978818	     24.59203922	     -5.95014535	     31.53737390	      2.85144333	     -8.56505182	     38.88488474	     51.50102316	     80.53321881	      9.45920583	      9.58197479
      0.08333333	     -4.85670882	     -2.36806589	     92.10364080	      0.23626874	      0.73741312	      0.69709128	      3.61294228	     -1.67479536	     -4.03176366	      6.31826241	      0.11027448	     28.09819141	     -5.38375916	      0.00000000	      2.71305068	      2.44042931	      3.18532791	      1.77840896	      0.03103909	     28.18943970	      0.63165534	      0.00000000	      0.38724485	      0.07274265	     -1.00675632	      0.71915242	      0.09674773	     -1.06967859	      0.63620457	      0.17686649	     -1.06967859	      0.44258214	      0.17686649	     -0.88091178	      0.35959557	      0.14833682	     -0.81798951	      0.22127171	      0.11267837	     -0.75506724	      2.76605126	      0.82287944	     -5.59927664	      0.00000000	      0.00000000	     27.93158633	      6.70601304	     10.59181344	     11.23620435	     -8.87994944	     58.68087275	     47.68884789	     21.73850008	     -7.23769181	     31.44067488	      2.79075114	     -8.40672495	     38.69926556	     51.37838430	     80.58265568	      9.42746311	      9.44516412
      0.10000000	     -4.80961738	     -2.25069492	     92.09154071	      0.23627108	      0.73773123	      0.69706607	      3.56095740	     -1.65701185	     -4.63118705	      6.28520285	      0.10969748	     28.48673555	     -3.94172671	      0.00000000	      2.60326368	      2.37480597	      2.20861156	      1.73644088	      0.03030661	     28.51260499	      1.84332036	      0.00000000	      0.36779818	      0.07662194	     -0.99639987	      0.68303800	      0.10190718	     -1.05867487	      0.60425563	      0.18629859	     -1.05867487	      0.42035654	      0.18629859	     -0.87184989	      0.34153739	      0.15624747	     -0.80957490	      0.21015988	      0.11868739	     -0.74729991	      2.62714563	      0.86676274	     -5.54167718	      0.00000000	      0.00000000	     27.90797090	      6.48961760	     10.32989154	     11.38136567	     -8.97040325	     59.03987972	     47.60535823	     23.22705146	     -6.41321871	     31.44996148	      2.96891444	     -8.52253451	     39.37728434	     51.35594619	     77.95724600	      8.99154212	      9.82907430
      0.11666667	     -4.71853568	     -2.24006228	     92.15823916	      0.23607178	      0.73801976	      0.69703857	      3.68865486	     -1.61825254	     -5.40970830	      6.44173545	      0.11242949	     28.78979212	     -2.59926187	      0.00000000	      2.58081487	      2.25541003	      0.99109270	      1.64037166	      0.02862989	     28.86084752	      3.73656043	      0.00000000	      0.36576413	      0.08927963	     -0.98820254	      0.67926056	      0.11874191	     -1.04996520	      0.60091388	      0.21707450	     -1.04996520	      0.41803182	      0.21707450	     -0.86467723	      0.33964857	      0.18205903	     -0.80291457	      0.20899762	      0.13829415	     -0.74115191	      2.61261658	      1.00994907	     -5.49608609	      0.00000000	      0.00000000	     27.89231378	      6.03201266	     10.16530193	     11.15465266	     -8.83989376	     58.27042937	     47.10347111	     24.97449464	     -4.71660377	     31.80363885	      2.90292311	     -8.40134514	     39.64298837	     51.36588705	     74.57449030	      7.98807261	     10.49058188
